<svg width="493" height="117" viewBox="0 0 493 117" fill="none" xmlns="http://www.w3.org/2000/svg">
<path d="M294.693 77.9999L281.413 36.9979H291.954L297.349 54.5939C298.262 57.8309 299.092 61.3999 299.839 65.2179C300.586 61.2339 301.333 58.6609 302.661 54.5939L308.305 36.9979H318.597L324.075 54.5939C324.573 56.2539 326.233 62.3959 326.731 65.1349C327.395 62.0639 328.723 57.1669 329.47 54.5939L334.948 36.9979H345.655L331.462 77.9999H322L316.356 60.2379C314.696 54.8429 313.783 50.9419 313.451 48.8669C313.036 50.7759 312.289 53.6809 310.214 60.4039L304.57 77.9999H294.693Z" fill="#39B666"/>
<path d="M383.575 36.9979H392.788V77.9999H383.326L382.662 71.6089C380.089 75.8419 375.192 79.0789 368.552 79.0789C356.351 79.0789 349.379 69.7829 349.379 57.0009C349.379 44.1359 357.098 35.7529 368.635 35.7529C374.777 35.7529 380.504 38.4089 382.994 43.3059L383.575 36.9979ZM382.496 57.4989C382.496 50.1119 378.014 44.9659 370.959 44.9659C363.904 44.9659 359.505 50.1949 359.505 57.4989C359.505 64.8029 363.821 69.9489 370.876 69.9489C377.931 69.9489 382.496 64.8859 382.496 57.4989Z" fill="#39B666"/>
<path d="M428.986 36.8319V46.2109H425.251C417.947 46.2109 413.382 50.1119 413.382 58.0799V77.9999H403.256V37.0809H412.801L413.382 43.0569C415.125 38.9899 419.026 36.2509 424.504 36.2509C425.915 36.2509 427.326 36.4169 428.986 36.8319Z" fill="#39B666"/>
<path d="M452.805 79.0789C440.604 79.0789 432.055 70.1979 432.055 57.4989C432.055 44.6339 440.438 35.7529 452.473 35.7529C464.757 35.7529 472.559 43.9699 472.559 56.7519V59.8229L441.683 59.9059C442.43 67.1269 446.248 70.7789 452.971 70.7789C458.532 70.7789 462.184 68.6209 463.346 64.7199H472.725C470.982 73.6839 463.512 79.0789 452.805 79.0789ZM452.556 44.0529C446.58 44.0529 442.928 47.2899 441.932 53.4319H462.516C462.516 47.7879 458.615 44.0529 452.556 44.0529Z" fill="#39B666"/>
<path d="M150.682 37.828H155.745V78H150.516L149.935 69.783C147.03 75.842 141.552 78.996 134.746 78.996C122.877 78.996 116.154 69.866 116.154 57.748C116.154 45.63 123.375 36.749 134.995 36.749C141.469 36.749 147.362 39.571 150.184 46.211L150.682 37.828ZM149.686 57.914C149.686 48.618 144.706 41.978 135.908 41.978C127.11 41.978 121.964 48.618 121.964 57.914C121.964 67.21 127.027 73.85 135.742 73.85C144.54 73.85 149.686 67.21 149.686 57.914Z" fill="white"/>
<path d="M164.951 56.752C164.951 45.796 172.006 36.749 183.792 36.749C190.764 36.749 196.076 39.986 198.649 45.879L199.23 37.828H204.21V76.755C204.21 88.707 196.574 96.509 184.788 96.509C174.496 96.509 167.275 90.699 165.698 80.988H171.425C172.67 87.462 177.65 91.28 184.871 91.28C193.088 91.28 198.566 85.719 198.566 77.336V67.791C195.827 73.435 190.266 76.755 183.377 76.755C171.923 76.755 164.951 67.708 164.951 56.752ZM170.678 56.669C170.678 64.886 175.741 71.609 184.207 71.609C192.922 71.609 198.068 65.301 198.068 56.669C198.068 48.12 193.088 41.812 184.29 41.812C175.658 41.812 170.678 48.535 170.678 56.669Z" fill="white"/>
<path d="M233.01 78.996C221.224 78.996 213.339 70.53 213.339 57.914C213.339 45.381 221.141 36.749 232.595 36.749C243.468 36.749 250.855 44.468 250.855 55.839V58.661H218.9C219.315 68.455 224.461 74.099 233.093 74.099C239.65 74.099 243.883 71.277 245.377 65.965H250.855C248.697 74.431 242.472 78.996 233.01 78.996ZM232.595 41.646C225.042 41.646 220.062 46.626 219.066 54.511H245.128C245.128 46.792 240.148 41.646 232.595 41.646Z" fill="white"/>
<path d="M268.394 78H262.75V42.642H254.699V37.828H262.75V25.129H268.394V37.828H276.445V42.642H268.394V78Z" fill="white"/>
<path fill-rule="evenodd" clip-rule="evenodd" d="M59.6999 20H52.2999V26.2L54.8358 53.1897L37.5444 32.3119L33.1603 27.9278L27.9277 33.1604L32.3118 37.5445L53.1896 54.8359L26.2 52.3L20 52.3V59.7H26.2L53.1902 57.164L32.3121 74.4556L27.9281 78.8397L33.1606 84.0723L37.5447 79.6882L54.836 58.8105L52.3001 85.8L52.3001 92H59.7001V85.8L57.1642 58.8103L74.4556 79.6881L78.8397 84.0722L84.0723 78.8396L79.6882 74.4555L58.8104 57.1641L85.8 59.7L92 59.7V52.3H85.8L58.8098 54.836L79.6879 37.5444L84.0719 33.1603L78.8394 27.9277L74.4553 32.3118L57.164 53.1895L59.6999 26.2V20Z" fill="white"/>
</svg>
